<?xml version="1.0" encoding="utf-8"?>
<!-- Generator: Adobe Illustrator 24.0.2, SVG Export Plug-In . SVG Version: 6.00 Build 0)  -->
<svg version="1.1" id="e419ba42-2367-4426-9d21-a7576166c904"
	 xmlns="http://www.w3.org/2000/svg" xmlns:xlink="http://www.w3.org/1999/xlink" x="0px" y="0px" viewBox="0 0 206 36"
	 style="enable-background:new 0 0 206 36;" xml:space="preserve">
<style type="text/css">
	.st0{fill:#EE3030;}
	.st1{fill:#DEE6EF;}
	.st2{fill:#E6313D;stroke:#000000;stroke-width:3;stroke-miterlimit:10;}
	.st3{fill:#DEE6EF;stroke:#000000;stroke-width:3;stroke-miterlimit:10;}
</style>
<rect y="11.4" class="st0" width="206" height="24.6"/>
<title>_</title>
<g>
	<polyline class="st1" points="203,0 203,33 20.7,33 3,18.8 3,0 	"/>
	<path d="M203,36H20.7c-0.7,0-1.3-0.2-1.9-0.7L1.1,21.1C0.4,20.6,0,19.7,0,18.8V0h6v17.4L21.8,30H200V0h6v33
		C206,34.7,204.7,36,203,36z"/>
</g>
<circle class="st2" cx="30.5" cy="18.5" r="6"/>
<path class="st3" d="M180.5,26.5L180.5,26.5z"/>
<path class="st3" d="M180.5,20.5L180.5,20.5z"/>
<path class="st3" d="M180.5,14.5L180.5,14.5z"/>
<path class="st3" d="M180.5,8.5L180.5,8.5z"/>
</svg>
